<mxfile host="Electron" agent="Mozilla/5.0 (X11; Linux x86_64) AppleWebKit/537.36 (KHTML, like Gecko) draw.io/27.0.9 Chrome/134.0.6998.205 Electron/35.6.0 Safari/537.36" version="27.0.9">
  <diagram name="Page-1" id="DNJmOOD31m_OkfDTv6hF">
    <mxGraphModel dx="2370" dy="901" grid="1" gridSize="10" guides="1" tooltips="1" connect="1" arrows="1" fold="1" page="1" pageScale="1" pageWidth="827" pageHeight="1169" math="0" shadow="0">
      <root>
        <mxCell id="0" />
        <mxCell id="1" parent="0" />
        <mxCell id="XQxry5hGJhZIRHLmm0Vk-6" value="" style="edgeStyle=orthogonalEdgeStyle;rounded=0;orthogonalLoop=1;jettySize=auto;html=1;startArrow=classic;startFill=1;" edge="1" parent="1" source="XQxry5hGJhZIRHLmm0Vk-3" target="XQxry5hGJhZIRHLmm0Vk-5">
          <mxGeometry relative="1" as="geometry" />
        </mxCell>
        <mxCell id="XQxry5hGJhZIRHLmm0Vk-3" value="8b I2C controller" style="rounded=0;whiteSpace=wrap;html=1;" vertex="1" parent="1">
          <mxGeometry x="160" y="160" width="120" height="60" as="geometry" />
        </mxCell>
        <mxCell id="XQxry5hGJhZIRHLmm0Vk-5" value="Config ROM Parser" style="rounded=0;whiteSpace=wrap;html=1;" vertex="1" parent="1">
          <mxGeometry x="160" y="20" width="120" height="60" as="geometry" />
        </mxCell>
        <mxCell id="XQxry5hGJhZIRHLmm0Vk-7" value="" style="shape=flexArrow;endArrow=classic;html=1;rounded=0;entryX=0;entryY=0.5;entryDx=0;entryDy=0;startArrow=block;width=22.758620689655174;endSize=6.510344827586207;" edge="1" parent="1" target="XQxry5hGJhZIRHLmm0Vk-3">
          <mxGeometry width="50" height="50" relative="1" as="geometry">
            <mxPoint x="-40" y="190" as="sourcePoint" />
            <mxPoint x="100" y="180" as="targetPoint" />
          </mxGeometry>
        </mxCell>
        <mxCell id="XQxry5hGJhZIRHLmm0Vk-8" value="I2C" style="edgeLabel;html=1;align=center;verticalAlign=middle;resizable=0;points=[];" vertex="1" connectable="0" parent="XQxry5hGJhZIRHLmm0Vk-7">
          <mxGeometry x="-0.124" y="-2" relative="1" as="geometry">
            <mxPoint x="12" y="-2" as="offset" />
          </mxGeometry>
        </mxCell>
        <mxCell id="XQxry5hGJhZIRHLmm0Vk-10" style="edgeStyle=orthogonalEdgeStyle;rounded=0;orthogonalLoop=1;jettySize=auto;html=1;exitX=1;exitY=0.5;exitDx=0;exitDy=0;entryX=0;entryY=0.5;entryDx=0;entryDy=0;" edge="1" parent="1" source="XQxry5hGJhZIRHLmm0Vk-9" target="XQxry5hGJhZIRHLmm0Vk-5">
          <mxGeometry relative="1" as="geometry" />
        </mxCell>
        <mxCell id="XQxry5hGJhZIRHLmm0Vk-9" value="Config ROM" style="rounded=0;whiteSpace=wrap;html=1;" vertex="1" parent="1">
          <mxGeometry x="-20" y="20" width="120" height="60" as="geometry" />
        </mxCell>
        <mxCell id="XQxry5hGJhZIRHLmm0Vk-17" value="" style="edgeStyle=orthogonalEdgeStyle;rounded=0;orthogonalLoop=1;jettySize=auto;html=1;shape=flexArrow;width=23.448275862068968;endSize=7.2137931034482765;" edge="1" parent="1" source="XQxry5hGJhZIRHLmm0Vk-12" target="XQxry5hGJhZIRHLmm0Vk-16">
          <mxGeometry relative="1" as="geometry" />
        </mxCell>
        <mxCell id="XQxry5hGJhZIRHLmm0Vk-20" value="16b" style="edgeLabel;html=1;align=center;verticalAlign=middle;resizable=0;points=[];" vertex="1" connectable="0" parent="XQxry5hGJhZIRHLmm0Vk-17">
          <mxGeometry x="-0.5204" y="-2" relative="1" as="geometry">
            <mxPoint x="11" y="-2" as="offset" />
          </mxGeometry>
        </mxCell>
        <mxCell id="XQxry5hGJhZIRHLmm0Vk-12" value="Camera Read FSM" style="rounded=0;whiteSpace=wrap;html=1;" vertex="1" parent="1">
          <mxGeometry x="160" y="300" width="120" height="60" as="geometry" />
        </mxCell>
        <mxCell id="XQxry5hGJhZIRHLmm0Vk-13" value="" style="shape=flexArrow;endArrow=classic;html=1;rounded=0;entryX=0;entryY=0.5;entryDx=0;entryDy=0;strokeWidth=1;width=24.82758620689655;endSize=6.751724137931034;" edge="1" parent="1">
          <mxGeometry width="50" height="50" relative="1" as="geometry">
            <mxPoint x="-40" y="329.66" as="sourcePoint" />
            <mxPoint x="160" y="329.66" as="targetPoint" />
          </mxGeometry>
        </mxCell>
        <mxCell id="XQxry5hGJhZIRHLmm0Vk-14" value="8b Data, Vsync, Href, Pixel CLK" style="edgeLabel;html=1;align=center;verticalAlign=middle;resizable=0;points=[];" vertex="1" connectable="0" parent="XQxry5hGJhZIRHLmm0Vk-13">
          <mxGeometry x="0.0479" y="3" relative="1" as="geometry">
            <mxPoint x="-15" y="3" as="offset" />
          </mxGeometry>
        </mxCell>
        <mxCell id="XQxry5hGJhZIRHLmm0Vk-19" value="" style="edgeStyle=orthogonalEdgeStyle;rounded=0;orthogonalLoop=1;jettySize=auto;html=1;shape=flexArrow;width=23.448275862068968;endSize=5.958620689655173;" edge="1" parent="1" source="XQxry5hGJhZIRHLmm0Vk-16" target="XQxry5hGJhZIRHLmm0Vk-18">
          <mxGeometry relative="1" as="geometry" />
        </mxCell>
        <mxCell id="XQxry5hGJhZIRHLmm0Vk-21" value="16b" style="edgeLabel;html=1;align=center;verticalAlign=middle;resizable=0;points=[];" vertex="1" connectable="0" parent="XQxry5hGJhZIRHLmm0Vk-19">
          <mxGeometry x="-0.1066" y="1" relative="1" as="geometry">
            <mxPoint y="1" as="offset" />
          </mxGeometry>
        </mxCell>
        <mxCell id="XQxry5hGJhZIRHLmm0Vk-16" value="Gray Scale" style="rounded=0;whiteSpace=wrap;html=1;" vertex="1" parent="1">
          <mxGeometry x="360" y="300" width="120" height="60" as="geometry" />
        </mxCell>
        <mxCell id="XQxry5hGJhZIRHLmm0Vk-26" style="edgeStyle=orthogonalEdgeStyle;rounded=0;orthogonalLoop=1;jettySize=auto;html=1;exitX=0.25;exitY=0;exitDx=0;exitDy=0;entryX=0.5;entryY=1;entryDx=0;entryDy=0;shape=flexArrow;startArrow=block;" edge="1" parent="1" source="XQxry5hGJhZIRHLmm0Vk-18" target="XQxry5hGJhZIRHLmm0Vk-24">
          <mxGeometry relative="1" as="geometry" />
        </mxCell>
        <mxCell id="XQxry5hGJhZIRHLmm0Vk-27" style="edgeStyle=orthogonalEdgeStyle;rounded=0;orthogonalLoop=1;jettySize=auto;html=1;exitX=0.75;exitY=0;exitDx=0;exitDy=0;entryX=0.5;entryY=1;entryDx=0;entryDy=0;shape=flexArrow;startArrow=block;" edge="1" parent="1" source="XQxry5hGJhZIRHLmm0Vk-18" target="XQxry5hGJhZIRHLmm0Vk-25">
          <mxGeometry relative="1" as="geometry" />
        </mxCell>
        <mxCell id="XQxry5hGJhZIRHLmm0Vk-18" value="Sobbel Filter" style="rounded=0;whiteSpace=wrap;html=1;" vertex="1" parent="1">
          <mxGeometry x="560" y="300" width="120" height="60" as="geometry" />
        </mxCell>
        <mxCell id="XQxry5hGJhZIRHLmm0Vk-24" value="ROW&lt;div&gt;RAM&lt;/div&gt;" style="whiteSpace=wrap;html=1;aspect=fixed;" vertex="1" parent="1">
          <mxGeometry x="570" y="200" width="40" height="40" as="geometry" />
        </mxCell>
        <mxCell id="XQxry5hGJhZIRHLmm0Vk-25" value="ROW&lt;div&gt;RAM&lt;/div&gt;" style="whiteSpace=wrap;html=1;aspect=fixed;" vertex="1" parent="1">
          <mxGeometry x="630" y="200" width="40" height="40" as="geometry" />
        </mxCell>
        <mxCell id="XQxry5hGJhZIRHLmm0Vk-41" style="edgeStyle=orthogonalEdgeStyle;rounded=0;orthogonalLoop=1;jettySize=auto;html=1;exitX=0.5;exitY=1;exitDx=0;exitDy=0;entryX=0.5;entryY=1;entryDx=0;entryDy=0;shape=flexArrow;" edge="1" parent="1" source="XQxry5hGJhZIRHLmm0Vk-28">
          <mxGeometry relative="1" as="geometry">
            <mxPoint x="420" y="585" as="targetPoint" />
          </mxGeometry>
        </mxCell>
        <mxCell id="XQxry5hGJhZIRHLmm0Vk-28" value="Frame Buffer" style="whiteSpace=wrap;html=1;aspect=fixed;" vertex="1" parent="1">
          <mxGeometry x="380" y="440" width="80" height="80" as="geometry" />
        </mxCell>
        <mxCell id="XQxry5hGJhZIRHLmm0Vk-42" style="edgeStyle=orthogonalEdgeStyle;rounded=0;orthogonalLoop=1;jettySize=auto;html=1;exitX=0.5;exitY=1;exitDx=0;exitDy=0;entryX=0.25;entryY=1;entryDx=0;entryDy=0;shape=flexArrow;" edge="1" parent="1" source="XQxry5hGJhZIRHLmm0Vk-29">
          <mxGeometry relative="1" as="geometry">
            <mxPoint x="507.5" y="585" as="targetPoint" />
          </mxGeometry>
        </mxCell>
        <mxCell id="XQxry5hGJhZIRHLmm0Vk-43" value="16b" style="edgeLabel;html=1;align=center;verticalAlign=middle;resizable=0;points=[];" vertex="1" connectable="0" parent="XQxry5hGJhZIRHLmm0Vk-42">
          <mxGeometry x="-0.2814" y="2" relative="1" as="geometry">
            <mxPoint x="-12" as="offset" />
          </mxGeometry>
        </mxCell>
        <mxCell id="XQxry5hGJhZIRHLmm0Vk-29" value="Frame Buffer" style="whiteSpace=wrap;html=1;aspect=fixed;" vertex="1" parent="1">
          <mxGeometry x="580" y="440" width="80" height="80" as="geometry" />
        </mxCell>
        <mxCell id="XQxry5hGJhZIRHLmm0Vk-40" style="edgeStyle=orthogonalEdgeStyle;rounded=0;orthogonalLoop=1;jettySize=auto;html=1;exitX=0.5;exitY=1;exitDx=0;exitDy=0;entryX=0.75;entryY=1;entryDx=0;entryDy=0;shape=flexArrow;" edge="1" parent="1" source="XQxry5hGJhZIRHLmm0Vk-32">
          <mxGeometry relative="1" as="geometry">
            <mxPoint x="332.5" y="585" as="targetPoint" />
          </mxGeometry>
        </mxCell>
        <mxCell id="XQxry5hGJhZIRHLmm0Vk-32" value="Frame Buffer" style="whiteSpace=wrap;html=1;aspect=fixed;" vertex="1" parent="1">
          <mxGeometry x="180" y="440" width="80" height="80" as="geometry" />
        </mxCell>
        <mxCell id="XQxry5hGJhZIRHLmm0Vk-33" value="" style="edgeStyle=orthogonalEdgeStyle;rounded=0;orthogonalLoop=1;jettySize=auto;html=1;shape=flexArrow;width=23.448275862068968;endSize=7.2137931034482765;exitX=0.5;exitY=1;exitDx=0;exitDy=0;entryX=0.5;entryY=0;entryDx=0;entryDy=0;" edge="1" parent="1" source="XQxry5hGJhZIRHLmm0Vk-12" target="XQxry5hGJhZIRHLmm0Vk-32">
          <mxGeometry relative="1" as="geometry">
            <mxPoint x="210" y="410" as="sourcePoint" />
            <mxPoint x="290" y="410" as="targetPoint" />
          </mxGeometry>
        </mxCell>
        <mxCell id="XQxry5hGJhZIRHLmm0Vk-34" value="16b" style="edgeLabel;html=1;align=center;verticalAlign=middle;resizable=0;points=[];" vertex="1" connectable="0" parent="XQxry5hGJhZIRHLmm0Vk-33">
          <mxGeometry x="-0.5204" y="-2" relative="1" as="geometry">
            <mxPoint x="2" y="11" as="offset" />
          </mxGeometry>
        </mxCell>
        <mxCell id="XQxry5hGJhZIRHLmm0Vk-35" value="" style="edgeStyle=orthogonalEdgeStyle;rounded=0;orthogonalLoop=1;jettySize=auto;html=1;shape=flexArrow;width=23.448275862068968;endSize=7.2137931034482765;exitX=0.5;exitY=1;exitDx=0;exitDy=0;entryX=0.5;entryY=0;entryDx=0;entryDy=0;" edge="1" parent="1">
          <mxGeometry relative="1" as="geometry">
            <mxPoint x="419.65999999999997" y="360" as="sourcePoint" />
            <mxPoint x="419.65999999999997" y="440" as="targetPoint" />
          </mxGeometry>
        </mxCell>
        <mxCell id="XQxry5hGJhZIRHLmm0Vk-36" value="16b" style="edgeLabel;html=1;align=center;verticalAlign=middle;resizable=0;points=[];" vertex="1" connectable="0" parent="XQxry5hGJhZIRHLmm0Vk-35">
          <mxGeometry x="-0.5204" y="-2" relative="1" as="geometry">
            <mxPoint x="2" y="11" as="offset" />
          </mxGeometry>
        </mxCell>
        <mxCell id="XQxry5hGJhZIRHLmm0Vk-37" value="" style="edgeStyle=orthogonalEdgeStyle;rounded=0;orthogonalLoop=1;jettySize=auto;html=1;shape=flexArrow;width=23.448275862068968;endSize=7.2137931034482765;exitX=0.5;exitY=1;exitDx=0;exitDy=0;entryX=0.5;entryY=0;entryDx=0;entryDy=0;" edge="1" parent="1">
          <mxGeometry relative="1" as="geometry">
            <mxPoint x="619.66" y="360" as="sourcePoint" />
            <mxPoint x="619.66" y="440" as="targetPoint" />
          </mxGeometry>
        </mxCell>
        <mxCell id="XQxry5hGJhZIRHLmm0Vk-38" value="16b" style="edgeLabel;html=1;align=center;verticalAlign=middle;resizable=0;points=[];" vertex="1" connectable="0" parent="XQxry5hGJhZIRHLmm0Vk-37">
          <mxGeometry x="-0.5204" y="-2" relative="1" as="geometry">
            <mxPoint x="2" y="11" as="offset" />
          </mxGeometry>
        </mxCell>
        <mxCell id="XQxry5hGJhZIRHLmm0Vk-45" value="16b" style="edgeLabel;html=1;align=center;verticalAlign=middle;resizable=0;points=[];" vertex="1" connectable="0" parent="1">
          <mxGeometry x="420" y="540" as="geometry">
            <mxPoint x="5" y="-2" as="offset" />
          </mxGeometry>
        </mxCell>
        <mxCell id="XQxry5hGJhZIRHLmm0Vk-46" value="16b" style="edgeLabel;html=1;align=center;verticalAlign=middle;resizable=0;points=[];" vertex="1" connectable="0" parent="1">
          <mxGeometry x="340" y="570" as="geometry">
            <mxPoint x="-65" y="-15" as="offset" />
          </mxGeometry>
        </mxCell>
        <mxCell id="XQxry5hGJhZIRHLmm0Vk-47" value="" style="endArrow=classic;html=1;rounded=0;entryX=1;entryY=0.5;entryDx=0;entryDy=0;" edge="1" parent="1">
          <mxGeometry width="50" height="50" relative="1" as="geometry">
            <mxPoint x="-40" y="615" as="sourcePoint" />
            <mxPoint x="260" y="615" as="targetPoint" />
          </mxGeometry>
        </mxCell>
        <mxCell id="XQxry5hGJhZIRHLmm0Vk-48" value="Video Select" style="edgeLabel;html=1;align=center;verticalAlign=middle;resizable=0;points=[];" vertex="1" connectable="0" parent="XQxry5hGJhZIRHLmm0Vk-47">
          <mxGeometry x="0.3055" y="3" relative="1" as="geometry">
            <mxPoint x="-33" y="-7" as="offset" />
          </mxGeometry>
        </mxCell>
        <mxCell id="XQxry5hGJhZIRHLmm0Vk-49" value="" style="shape=flexArrow;endArrow=classic;html=1;rounded=0;exitX=0.5;exitY=0;exitDx=0;exitDy=0;" edge="1" parent="1">
          <mxGeometry width="50" height="50" relative="1" as="geometry">
            <mxPoint x="420" y="645" as="sourcePoint" />
            <mxPoint x="420" y="720" as="targetPoint" />
          </mxGeometry>
        </mxCell>
        <mxCell id="XQxry5hGJhZIRHLmm0Vk-51" value="RGB" style="edgeLabel;html=1;align=center;verticalAlign=middle;resizable=0;points=[];" vertex="1" connectable="0" parent="XQxry5hGJhZIRHLmm0Vk-49">
          <mxGeometry x="-0.2307" y="2" relative="1" as="geometry">
            <mxPoint as="offset" />
          </mxGeometry>
        </mxCell>
        <mxCell id="XQxry5hGJhZIRHLmm0Vk-50" value="TMDS" style="text;html=1;align=center;verticalAlign=middle;resizable=0;points=[];autosize=1;strokeColor=none;fillColor=none;" vertex="1" parent="1">
          <mxGeometry x="390" y="718" width="60" height="30" as="geometry" />
        </mxCell>
        <mxCell id="XQxry5hGJhZIRHLmm0Vk-53" value="Video MUX Logic" style="shape=trapezoid;perimeter=trapezoidPerimeter;whiteSpace=wrap;html=1;fixedSize=1;rotation=0;size=30;labelBorderColor=none;verticalAlign=middle;horizontal=1;direction=west;" vertex="1" parent="1">
          <mxGeometry x="245" y="585" width="350" height="60" as="geometry" />
        </mxCell>
      </root>
    </mxGraphModel>
  </diagram>
</mxfile>
